<svg width="90" height="102" viewBox="0 0 90 102" fill="none" xmlns="http://www.w3.org/2000/svg">
<mask id="mask0" mask-type="alpha" maskUnits="userSpaceOnUse" x="0" y="0" width="90" height="102">
<path d="M0 0H40C67.6142 0 90 22.3858 90 50V52C90 79.6142 67.6142 102 40 102H0V0Z" fill="#403D56"/>
</mask>
<g mask="url(#mask0)">
<path d="M0 10C0 4.47715 4.47715 0 10 0H40C67.6142 0 90 22.3858 90 50V52C90 79.6142 67.6142 102 40 102H10C4.47715 102 0 97.5229 0 92V10Z" fill="#403D56"/>
<path fill-rule="evenodd" clip-rule="evenodd" d="M7.5 45C3.35786 45 0 48.3579 0 52.5V69.8023V74.9062V92C0 97.5229 4.47715 102 10 102H57.8022C75.5846 102 90 87.5846 90 69.8023H75V62.2969C75 58.1547 71.6421 54.7969 67.5 54.7969C63.3579 54.7969 60 58.1547 60 62.2969V69.8023H45V67.6406C45 63.4985 41.6421 60.1406 37.5 60.1406C33.3579 60.1406 30 63.4985 30 67.6406V69.8023H15V52.5C15 48.3579 11.6421 45 7.5 45Z" fill="url(#paint0_linear)"/>
<rect x="15" y="50" width="15" height="30" rx="7.5" fill="#403D56"/>
<rect x="45" y="57" width="15" height="40" rx="7.5" fill="#403D56"/>
<rect x="75" y="38" width="15" height="40" rx="7.5" fill="#403D56"/>
</g>
<path d="M52.5349 31.5913C52.0707 31.0868 51.5194 30.6866 50.9128 30.4136C50.3061 30.1405 49.6558 30 48.9991 30C48.3424 30 47.6921 30.1405 47.0854 30.4136C46.4787 30.6866 45.9275 31.0868 45.4633 31.5913L44.4998 32.6379L43.5363 31.5913C42.5985 30.5728 41.3266 30.0005 40.0004 30.0005C38.6742 30.0005 37.4024 30.5728 36.4646 31.5913C35.5268 32.6099 35 33.9914 35 35.4319C35 36.8723 35.5268 38.2538 36.4646 39.2724L37.4281 40.3189L44.4998 48L51.5714 40.3189L52.5349 39.2724C52.9994 38.7681 53.3678 38.1694 53.6192 37.5105C53.8706 36.8515 54 36.1452 54 35.4319C54 34.7186 53.8706 34.0123 53.6192 33.3533C53.3678 32.6943 52.9994 32.0956 52.5349 31.5913Z" fill="#F8F3AF" stroke="#F8F3AF" stroke-linecap="round" stroke-linejoin="round"/>
<defs>
<linearGradient id="paint0_linear" x1="45" y1="52.125" x2="24.8985" y2="103.714" gradientUnits="userSpaceOnUse">
<stop stop-color="#F8F3AF"/>
<stop offset="1" stop-color="#FC7753"/>
</linearGradient>
</defs>
</svg>
